<?xml version="1.0" encoding="utf-8"?>
<!-- Generator: Adobe Illustrator 22.0.1, SVG Export Plug-In . SVG Version: 6.00 Build 0)  -->
<svg version="1.1" id="Layer_1" xmlns="http://www.w3.org/2000/svg" xmlns:xlink="http://www.w3.org/1999/xlink" x="0px" y="0px"
	 viewBox="0 0 214 112" style="enable-background:new 0 0 214 112;" xml:space="preserve">
<style type="text/css">
	.st0{fill:#050551;}
	.st1{fill:#0000EF;}
	.st2{fill:#050565;}
	.st3{fill:#000B8B;}
	.st4{fill:#0011D6;}
	.st5{fill:none;}
	.st6{fill:#7982ED;}
	.st7{fill-rule:evenodd;clip-rule:evenodd;fill:url(#SVGID_56_);}
	.st8{fill:url(#SVGID_57_);}
	.st9{fill:url(#SVGID_58_);}
	.st10{fill:url(#SVGID_59_);}
	.st11{fill:url(#SVGID_60_);}
	.st12{opacity:0.29;}
	.st13{fill:url(#SVGID_61_);}
	.st14{fill:url(#SVGID_62_);}
	.st15{fill:url(#SVGID_63_);}
	.st16{fill:url(#SVGID_64_);}
	.st17{fill:#E5D57D;}
	.st18{fill:url(#SVGID_65_);}
	.st19{fill:url(#SVGID_66_);}
	.st20{fill:url(#SVGID_67_);}
	.st21{fill:url(#SVGID_68_);}
	.st22{fill:url(#SVGID_69_);}
	.st23{fill:url(#SVGID_84_);}
	.st24{fill:url(#SVGID_85_);}
	.st25{fill:#C3A656;}
	.st26{fill:#FFFFFF;stroke:#C3A656;stroke-width:2.5;stroke-miterlimit:10;}
	.st27{enable-background:new    ;}
	.st28{clip-path:url(#SVGID_86_);enable-background:new    ;}
	.st29{fill:#00035D;}
	.st30{fill:#000360;}
	.st31{fill:#000363;}
	.st32{fill:#000366;}
	.st33{fill:#000369;}
	.st34{fill:#00046C;}
	.st35{fill:#000470;}
	.st36{clip-path:url(#SVGID_87_);enable-background:new    ;}
	.st37{fill:#00046F;}
	.st38{fill:#000472;}
	.st39{fill:#000475;}
	.st40{fill:#000478;}
	.st41{fill:#00047B;}
	.st42{fill:#00047E;}
	.st43{fill:#000481;}
	.st44{fill:#000484;}
	.st45{fill:#000587;}
	.st46{fill:#00058A;}
	.st47{fill:#00058D;}
	.st48{fill:#00035B;}
	.st49{clip-path:url(#SVGID_88_);enable-background:new    ;}
	.st50{clip-path:url(#SVGID_89_);enable-background:new    ;}
	.st51{clip-path:url(#SVGID_90_);enable-background:new    ;}
	.st52{clip-path:url(#SVGID_91_);enable-background:new    ;}
	.st53{clip-path:url(#SVGID_92_);enable-background:new    ;}
	.st54{clip-path:url(#SVGID_93_);enable-background:new    ;}
	.st55{clip-path:url(#SVGID_94_);enable-background:new    ;}
	.st56{clip-path:url(#SVGID_95_);enable-background:new    ;}
	.st57{clip-path:url(#SVGID_96_);enable-background:new    ;}
	.st58{clip-path:url(#SVGID_97_);enable-background:new    ;}
	.st59{clip-path:url(#SVGID_98_);enable-background:new    ;}
	.st60{clip-path:url(#SVGID_99_);enable-background:new    ;}
	.st61{clip-path:url(#SVGID_101_);enable-background:new    ;}
	.st62{fill:#00045C;}
	.st63{clip-path:url(#SVGID_103_);enable-background:new    ;}
	.st64{fill:url(#SVGID_104_);}
	.st65{clip-path:url(#SVGID_106_);enable-background:new    ;}
	.st66{clip-path:url(#SVGID_108_);enable-background:new    ;}
	.st67{fill:url(#SVGID_109_);}
	.st68{clip-path:url(#SVGID_111_);enable-background:new    ;}
	.st69{clip-path:url(#SVGID_113_);enable-background:new    ;}
	.st70{fill:url(#SVGID_114_);}
	.st71{clip-path:url(#SVGID_116_);enable-background:new    ;}
	.st72{clip-path:url(#SVGID_118_);enable-background:new    ;}
	.st73{fill:url(#SVGID_119_);}
	.st74{clip-path:url(#SVGID_121_);enable-background:new    ;}
	.st75{clip-path:url(#SVGID_123_);enable-background:new    ;}
	.st76{fill:url(#SVGID_124_);}
	.st77{clip-path:url(#SVGID_126_);enable-background:new    ;}
	.st78{clip-path:url(#SVGID_128_);enable-background:new    ;}
	.st79{fill:url(#SVGID_129_);}
	.st80{clip-path:url(#SVGID_131_);enable-background:new    ;}
	.st81{clip-path:url(#SVGID_133_);enable-background:new    ;}
	.st82{fill:url(#SVGID_134_);}
	.st83{fill:#FFFFFF;}
	.st84{clip-path:url(#SVGID_136_);}
	.st85{fill:url(#SVGID_137_);}
	.st86{fill:url(#SVGID_138_);}
	.st87{fill:url(#SVGID_139_);}
	.st88{fill:url(#SVGID_140_);}
	.st89{fill:url(#SVGID_141_);}
	.st90{fill:url(#SVGID_142_);}
	.st91{fill:url(#SVGID_143_);}
	.st92{fill:#05053C;}
	.st93{fill:#050528;}
	.st94{fill:#050578;}
	.st95{fill-rule:evenodd;clip-rule:evenodd;fill:url(#SVGID_144_);}
	.st96{clip-path:url(#SVGID_136_);fill:#C3A656;}
	.st97{clip-path:url(#SVGID_146_);}
	.st98{fill:url(#SVGID_147_);}
	.st99{fill:url(#SVGID_148_);}
	.st100{fill:url(#SVGID_149_);}
	.st101{fill:url(#SVGID_150_);}
	.st102{fill:url(#SVGID_151_);}
	.st103{fill:url(#SVGID_152_);}
	.st104{fill-rule:evenodd;clip-rule:evenodd;fill:url(#SVGID_153_);}
	.st105{fill:#FFFFFF;stroke:#C3A656;stroke-width:2.25;stroke-miterlimit:10;}
	.st106{clip-path:url(#SVGID_155_);}
	.st107{clip-path:url(#SVGID_156_);enable-background:new    ;}
	.st108{fill:#0404A9;}
	.st109{fill:#0404AF;}
	.st110{fill:#0505B6;}
	.st111{fill:#0505BC;}
	.st112{clip-path:url(#SVGID_157_);enable-background:new    ;}
	.st113{fill:#01012F;}
	.st114{clip-path:url(#SVGID_158_);enable-background:new    ;}
	.st115{clip-path:url(#SVGID_159_);enable-background:new    ;}
	.st116{clip-path:url(#SVGID_160_);enable-background:new    ;}
	.st117{fill:#0404A2;}
	.st118{fill:#04049C;}
	.st119{fill:#010128;}
	.st120{clip-path:url(#SVGID_161_);enable-background:new    ;}
	.st121{fill:#010135;}
	.st122{clip-path:url(#SVGID_162_);enable-background:new    ;}
	.st123{fill:#020248;}
	.st124{fill:#020242;}
	.st125{fill:#01013B;}
	.st126{fill:#0404A5;}
	.st127{fill:#02024A;}
	.st128{clip-path:url(#SVGID_163_);enable-background:new    ;}
	.st129{fill:#020255;}
	.st130{fill:#02024F;}
	.st131{fill:#020264;}
	.st132{clip-path:url(#SVGID_164_);enable-background:new    ;}
	.st133{fill:#040496;}
	.st134{fill:#04048F;}
	.st135{fill:#030389;}
	.st136{fill:#030382;}
	.st137{fill:#03037C;}
	.st138{fill:#030375;}
	.st139{fill:#03036F;}
	.st140{fill:#030369;}
	.st141{fill:#020262;}
	.st142{fill:#02025C;}
	.st143{fill-rule:evenodd;clip-rule:evenodd;fill:url(#SVGID_165_);}
	.st144{clip-path:url(#SVGID_166_);enable-background:new    ;}
	.st145{clip-path:url(#SVGID_167_);enable-background:new    ;}
	.st146{clip-path:url(#SVGID_168_);enable-background:new    ;}
	.st147{clip-path:url(#SVGID_169_);enable-background:new    ;}
	.st148{clip-path:url(#SVGID_170_);enable-background:new    ;}
	.st149{clip-path:url(#SVGID_171_);enable-background:new    ;}
	.st150{clip-path:url(#SVGID_172_);enable-background:new    ;}
	.st151{clip-path:url(#SVGID_173_);enable-background:new    ;}
	.st152{clip-path:url(#SVGID_174_);enable-background:new    ;}
	.st153{clip-path:url(#SVGID_175_);enable-background:new    ;}
	.st154{clip-path:url(#SVGID_176_);enable-background:new    ;}
	.st155{clip-path:url(#SVGID_177_);enable-background:new    ;}
	.st156{clip-path:url(#SVGID_178_);enable-background:new    ;}
	.st157{clip-path:url(#SVGID_179_);enable-background:new    ;}
	.st158{clip-path:url(#SVGID_181_);enable-background:new    ;}
	.st159{clip-path:url(#SVGID_183_);enable-background:new    ;}
	.st160{fill:url(#SVGID_184_);}
	.st161{clip-path:url(#SVGID_186_);enable-background:new    ;}
	.st162{clip-path:url(#SVGID_188_);enable-background:new    ;}
	.st163{fill:url(#SVGID_189_);}
	.st164{clip-path:url(#SVGID_191_);enable-background:new    ;}
	.st165{clip-path:url(#SVGID_193_);enable-background:new    ;}
	.st166{fill:url(#SVGID_194_);}
	.st167{clip-path:url(#SVGID_196_);enable-background:new    ;}
	.st168{clip-path:url(#SVGID_198_);enable-background:new    ;}
	.st169{fill:url(#SVGID_199_);}
	.st170{clip-path:url(#SVGID_201_);enable-background:new    ;}
	.st171{clip-path:url(#SVGID_203_);enable-background:new    ;}
	.st172{fill:url(#SVGID_204_);}
	.st173{clip-path:url(#SVGID_206_);enable-background:new    ;}
	.st174{clip-path:url(#SVGID_208_);enable-background:new    ;}
	.st175{fill:url(#SVGID_209_);}
	.st176{clip-path:url(#SVGID_211_);enable-background:new    ;}
	.st177{clip-path:url(#SVGID_213_);enable-background:new    ;}
	.st178{fill:url(#SVGID_214_);}
	.st179{clip-path:url(#SVGID_155_);enable-background:new    ;}
	.st180{clip-path:url(#SVGID_216_);enable-background:new    ;}
	.st181{fill:#7D6A37;}
	.st182{fill:#816E39;}
	.st183{fill:#85713A;}
	.st184{fill:#88743C;}
	.st185{fill:#8C783E;}
	.st186{clip-path:url(#SVGID_218_);enable-background:new    ;}
	.st187{fill:#947E41;}
	.st188{fill:#907B40;}
	.st189{clip-path:url(#SVGID_220_);enable-background:new    ;}
	.st190{fill:#65562D;}
	.st191{clip-path:url(#SVGID_222_);enable-background:new    ;}
	.st192{clip-path:url(#SVGID_224_);enable-background:new    ;}
	.st193{fill:#988143;}
	.st194{fill:#9C8545;}
	.st195{fill:#A08847;}
	.st196{fill:#A48B48;}
	.st197{fill:#796735;}
	.st198{fill:#756434;}
	.st199{fill:#716032;}
	.st200{fill:#6D5D30;}
	.st201{fill:#695A2E;}
	.st202{fill:#8A763D;}
	.st203{clip-path:url(#SVGID_226_);}
	.st204{clip-path:url(#SVGID_227_);enable-background:new    ;}
	.st205{clip-path:url(#SVGID_228_);enable-background:new    ;}
	.st206{clip-path:url(#SVGID_229_);enable-background:new    ;}
	.st207{clip-path:url(#SVGID_230_);enable-background:new    ;}
	.st208{clip-path:url(#SVGID_231_);enable-background:new    ;}
	.st209{clip-path:url(#SVGID_232_);enable-background:new    ;}
	.st210{clip-path:url(#SVGID_233_);enable-background:new    ;}
	.st211{clip-path:url(#SVGID_234_);enable-background:new    ;}
	.st212{clip-path:url(#SVGID_235_);enable-background:new    ;}
	.st213{clip-path:url(#SVGID_237_);enable-background:new    ;}
	.st214{fill:#00044E;}
	.st215{fill:#000450;}
	.st216{fill:#000452;}
	.st217{fill:#000454;}
	.st218{fill:#000455;}
	.st219{fill:#000457;}
	.st220{fill:#000456;}
	.st221{clip-path:url(#SVGID_239_);enable-background:new    ;}
	.st222{fill:#000459;}
	.st223{fill:#00045B;}
	.st224{fill:#00045E;}
	.st225{fill:#000460;}
	.st226{fill:#000462;}
	.st227{fill:#000563;}
	.st228{fill:#000565;}
	.st229{fill:url(#SVGID_240_);}
	.st230{clip-path:url(#SVGID_242_);enable-background:new    ;}
	.st231{clip-path:url(#SVGID_244_);enable-background:new    ;}
	.st232{fill:url(#SVGID_245_);}
	.st233{clip-path:url(#SVGID_247_);enable-background:new    ;}
	.st234{clip-path:url(#SVGID_249_);enable-background:new    ;}
	.st235{fill:url(#SVGID_250_);}
	.st236{clip-path:url(#SVGID_252_);enable-background:new    ;}
	.st237{clip-path:url(#SVGID_254_);enable-background:new    ;}
	.st238{fill:url(#SVGID_255_);}
	.st239{clip-path:url(#SVGID_257_);enable-background:new    ;}
	.st240{clip-path:url(#SVGID_259_);enable-background:new    ;}
	.st241{fill:url(#SVGID_260_);}
	.st242{clip-path:url(#SVGID_262_);enable-background:new    ;}
	.st243{clip-path:url(#SVGID_264_);enable-background:new    ;}
	.st244{fill:url(#SVGID_265_);}
	.st245{fill-rule:evenodd;clip-rule:evenodd;fill:url(#SVGID_266_);}
	.st246{clip-path:url(#SVGID_268_);}
	.st247{clip-path:url(#SVGID_269_);enable-background:new    ;}
	.st248{clip-path:url(#SVGID_270_);enable-background:new    ;}
	.st249{clip-path:url(#SVGID_271_);enable-background:new    ;}
	.st250{clip-path:url(#SVGID_272_);enable-background:new    ;}
	.st251{clip-path:url(#SVGID_273_);enable-background:new    ;}
	.st252{clip-path:url(#SVGID_274_);enable-background:new    ;}
	.st253{clip-path:url(#SVGID_275_);enable-background:new    ;}
	.st254{clip-path:url(#SVGID_276_);enable-background:new    ;}
	.st255{clip-path:url(#SVGID_277_);enable-background:new    ;}
	.st256{fill-rule:evenodd;clip-rule:evenodd;fill:url(#SVGID_278_);}
	.st257{clip-path:url(#SVGID_279_);enable-background:new    ;}
	.st258{clip-path:url(#SVGID_280_);enable-background:new    ;}
	.st259{clip-path:url(#SVGID_281_);enable-background:new    ;}
	.st260{clip-path:url(#SVGID_282_);enable-background:new    ;}
	.st261{clip-path:url(#SVGID_283_);enable-background:new    ;}
	.st262{clip-path:url(#SVGID_284_);enable-background:new    ;}
	.st263{clip-path:url(#SVGID_285_);enable-background:new    ;}
	.st264{clip-path:url(#SVGID_286_);enable-background:new    ;}
	.st265{clip-path:url(#SVGID_287_);enable-background:new    ;}
	.st266{clip-path:url(#SVGID_288_);enable-background:new    ;}
	.st267{clip-path:url(#SVGID_289_);enable-background:new    ;}
	.st268{clip-path:url(#SVGID_290_);enable-background:new    ;}
	.st269{clip-path:url(#SVGID_291_);enable-background:new    ;}
	.st270{clip-path:url(#SVGID_292_);enable-background:new    ;}
	.st271{clip-path:url(#SVGID_294_);enable-background:new    ;}
	.st272{clip-path:url(#SVGID_296_);enable-background:new    ;}
	.st273{fill:url(#SVGID_297_);}
	.st274{clip-path:url(#SVGID_299_);enable-background:new    ;}
	.st275{clip-path:url(#SVGID_301_);enable-background:new    ;}
	.st276{fill:url(#SVGID_302_);}
	.st277{clip-path:url(#SVGID_306_);enable-background:new    ;}
	.st278{clip-path:url(#SVGID_310_);enable-background:new    ;}
	.st279{fill:url(#SVGID_312_);}
	.st280{clip-path:url(#SVGID_314_);enable-background:new    ;}
	.st281{clip-path:url(#SVGID_316_);enable-background:new    ;}
	.st282{fill:url(#SVGID_317_);}
	.st283{clip-path:url(#SVGID_319_);enable-background:new    ;}
	.st284{clip-path:url(#SVGID_321_);enable-background:new    ;}
	.st285{fill:url(#SVGID_322_);}
	.st286{clip-path:url(#SVGID_324_);enable-background:new    ;}
	.st287{clip-path:url(#SVGID_326_);enable-background:new    ;}
	.st288{fill:url(#SVGID_327_);}
	.st289{clip-path:url(#SVGID_329_);enable-background:new    ;}
	.st290{clip-path:url(#SVGID_331_);enable-background:new    ;}
	.st291{fill:url(#SVGID_332_);}
	.st292{fill:url(#SVGID_333_);stroke:#BCBEC0;stroke-miterlimit:10;}
	.st293{fill:none;stroke:#BCBEC0;stroke-miterlimit:10;}
	.st294{fill:#FFFFFF;stroke:#E5D57D;stroke-miterlimit:10;}
	.st295{fill:#BBBDBF;}
	.st296{fill:#E5E5E4;}
	.st297{fill:#544741;}
	.st298{fill:#746458;}
	.st299{fill:#6D6F71;}
	.st300{fill:#CF4358;}
	.st301{fill:#FBD900;}
	.st302{fill:#E55325;}
	.st303{fill:#7DC142;}
	.st304{fill:#E5362C;}
	.st305{fill:#B656A0;}
	.st306{fill:#AA2385;}
	.st307{fill:#6FBD44;}
	.st308{fill:#229BD7;}
	.st309{fill:url(#SVGID_334_);stroke:#BCBEC0;stroke-miterlimit:10;}
	.st310{fill:#000545;}
	.st311{fill:#FFFFFF;stroke:#BCBEC0;stroke-miterlimit:10;}
	.st312{fill:url(#SVGID_335_);}
	.st313{fill:#BCBEC0;}
	.st314{fill:#00056E;}
	.st315{fill:url(#SVGID_336_);}
	.st316{fill:url(#SVGID_337_);}
	.st317{fill:url(#SVGID_338_);}
	.st318{fill:url(#SVGID_339_);}
	.st319{fill:url(#SVGID_340_);}
	.st320{fill:url(#SVGID_341_);}
	.st321{fill:none;stroke:#00056E;stroke-miterlimit:10;stroke-dasharray:4,3;}
	.st322{fill:url(#SVGID_342_);}
	.st323{fill:url(#SVGID_343_);}
	.st324{fill:url(#SVGID_344_);}
	.st325{fill:url(#SVGID_345_);}
	.st326{fill:url(#SVGID_346_);}
	.st327{fill:url(#SVGID_347_);}
	.st328{fill:url(#SVGID_348_);}
	.st329{fill:url(#SVGID_349_);}
	.st330{fill:url(#SVGID_350_);}
	.st331{fill:#D1D3D4;}
	.st332{fill:url(#SVGID_351_);}
	.st333{fill:#939598;}
	.st334{fill:url(#SVGID_352_);}
	.st335{fill:url(#SVGID_353_);}
	.st336{fill:url(#SVGID_354_);}
	.st337{fill:url(#SVGID_355_);}
	.st338{fill:#231F20;}
	.st339{clip-path:url(#SVGID_356_);enable-background:new    ;}
	.st340{clip-path:url(#SVGID_357_);enable-background:new    ;}
	.st341{clip-path:url(#SVGID_358_);enable-background:new    ;}
	.st342{clip-path:url(#SVGID_359_);enable-background:new    ;}
	.st343{clip-path:url(#SVGID_360_);enable-background:new    ;}
</style>
<g>
	<path class="st83" d="M204,112H10c-5.5,0-10-4.5-10-10V10C0,4.5,4.5,0,10,0h194c5.5,0,10,4.5,10,10v92C214,107.5,209.5,112,204,112
		z"/>
</g>
<g>
	<defs>
		<rect id="SVGID_145_" x="37.8" y="14.5" width="138.4" height="97.5"/>
	</defs>
	<clipPath id="SVGID_56_">
		<use xlink:href="#SVGID_145_"  style="overflow:visible;"/>
	</clipPath>
	<g style="clip-path:url(#SVGID_56_);">
		<g>
			<linearGradient id="SVGID_57_" gradientUnits="userSpaceOnUse" x1="65.6662" y1="77.1638" x2="65.6662" y2="92.9057">
				<stop  offset="0" style="stop-color:#000596"/>
				<stop  offset="1" style="stop-color:#00056E"/>
			</linearGradient>
			<path class="st8" d="M72.2,94.7h-13V78.5c0-1.1,0.9-2,2-2h9c1.1,0,2,0.9,2,2V94.7z"/>
			<linearGradient id="SVGID_58_" gradientUnits="userSpaceOnUse" x1="118.239" y1="54.8596" x2="118.239" y2="91.9727">
				<stop  offset="0" style="stop-color:#000596"/>
				<stop  offset="1" style="stop-color:#00056E"/>
			</linearGradient>
			<path class="st9" d="M124.7,94h-13V55c0-1.1,0.9-2,2-2h9c1.1,0,2,0.9,2,2V94z"/>
			<linearGradient id="SVGID_59_" gradientUnits="userSpaceOnUse" x1="83.1602" y1="72.6107" x2="83.1602" y2="92.9192">
				<stop  offset="0" style="stop-color:#000596"/>
				<stop  offset="1" style="stop-color:#00056E"/>
			</linearGradient>
			<path class="st10" d="M89.7,94h-13V74c0-1.1,0.9-2,2-2h9c1.1,0,2,0.9,2,2V94z"/>
			<linearGradient id="SVGID_60_" gradientUnits="userSpaceOnUse" x1="153.2269" y1="35.8175" x2="153.2269" y2="92.3618">
				<stop  offset="0" style="stop-color:#000596"/>
				<stop  offset="1" style="stop-color:#00056E"/>
			</linearGradient>
			<path class="st11" d="M159.7,94h-13V36c0-1.1,0.9-2,2-2h9c1.1,0,2,0.9,2,2V94z"/>
			<linearGradient id="SVGID_61_" gradientUnits="userSpaceOnUse" x1="100.6996" y1="64.4771" x2="100.6996" y2="92.1625">
				<stop  offset="0" style="stop-color:#000596"/>
				<stop  offset="1" style="stop-color:#00056E"/>
			</linearGradient>
			<path class="st13" d="M107.2,94H94.2V64c0-1.1,0.9-2,2-2h9.1c1.1,0,2,0.9,2,2V94z"/>
			<linearGradient id="SVGID_62_" gradientUnits="userSpaceOnUse" x1="135.7329" y1="44.4057" x2="135.7329" y2="92.0867">
				<stop  offset="0" style="stop-color:#000596"/>
				<stop  offset="1" style="stop-color:#00056E"/>
			</linearGradient>
			<path class="st14" d="M142.2,94h-13V44c0-1.1,0.9-2,2-2h9c1.1,0,2,0.9,2,2V94z"/>
		</g>
		<g>
			<g>
				<g>
					<g>
						<path class="st1" d="M52.5,109.7c-6.9,1-7-2.7-7-3.3c0.1-0.8,0.5-1,1.2-1.4c30-11.6,79.6-10.6,124.1-0.5
							c2,0.5,2.5,1.5,2.5,1.8c0,1.5-0.7,3.5-30.6,0.7C117.3,104.6,90,104.4,52.5,109.7z"/>
					</g>
					<g>
						<path class="st2" d="M46.8,123.3c0,0-0.9-0.6-1.1-1.1c-0.2-0.5,0.2-1.4,0.2-1.4c49.2-14.4,83-9.5,127.1,0.9
							c0,0,0.5,0.2,0.3,0.6c-0.1,0.4-0.5,0.4-0.5,0.4C127.8,118.4,91.3,118.7,46.8,123.3z"/>
					</g>
				</g>
			</g>
			<g>
				<g>
					<path class="st0" d="M173.5,106.7v14.7c0,0.3,0,0.5-0.2,0.8c-44.2-8.4-82.6-8.5-127.7,0c-0.1-0.2-0.2-0.5-0.2-0.8v-14.7
						c0-0.2,0-0.3,0.1-0.5c44.3-8.4,82.7-8.5,127.9,0C173.5,106.4,173.5,106.5,173.5,106.7z"/>
					<path class="st2" d="M172.9,105.2c0.3,0.3,0.5,0.6,0.6,1c-45.2-8.5-83.6-8.4-127.9,0c0.1-0.4,0.3-0.8,0.6-1l11.7-10.3
						c0.5-0.5,1-0.9,1.7-0.9h99.9c0.7,0,1.2,0.5,1.7,0.9L172.9,105.2z"/>
					<g>
						<g>
							<path class="st5" d="M45.6,106.2c44.3-8.4,82.7-8.5,127.9,0"/>
						</g>
					</g>
					
						<radialGradient id="SVGID_63_" cx="108.3211" cy="112.1318" r="15.2013" gradientTransform="matrix(7.662152e-03 1 -10.771 8.253118e-02 1315.259 -5.4404)" gradientUnits="userSpaceOnUse">
						<stop  offset="0.4017" style="stop-color:#2E3192;stop-opacity:0"/>
						<stop  offset="0.8" style="stop-color:#2E3192;stop-opacity:0.6"/>
						<stop  offset="1" style="stop-color:#2E3192;stop-opacity:0.8"/>
					</radialGradient>
					<path style="fill-rule:evenodd;clip-rule:evenodd;fill:url(#SVGID_63_);" d="M161.2,94.9c-0.5-0.5-1-0.9-1.7-0.9H59.6
						c-0.7,0-1.1,0.4-1.7,0.9l-11.7,10.3c-0.4,0.4-0.7,1-0.7,1.5v4.9l1.9,2.8c0.8-0.2,0.4-0.5,2.6-0.9c9.8-1.8,32.4-5.4,59.8-5.4
						c24.9,0,45.7,3,56.5,4.8c3.6,0.6,7.2-2.1,7.2-2.1v-4.1c0-0.6-0.2-1.1-0.7-1.5L161.2,94.9z"/>
				</g>
			</g>
		</g>
		<g>
			<g>
				<path class="st83" d="M62.5,89.2v-6.4h1.9l1.2,4.4l1.2-4.4h2v6.4h-1.2v-5.1l-1.3,5.1H65l-1.3-5.1v5.1H62.5z"/>
			</g>
			<g>
				<path class="st83" d="M86.5,81.2h-1.4l-0.6-1.5H82l-0.5,1.5H80l2.5-6.4h1.4L86.5,81.2z M84.1,78.7l-0.9-2.4l-0.9,2.4H84.1z"/>
			</g>
			<g>
				<path class="st83" d="M97.8,71.7v-6.4h2.7c0.7,0,1.2,0.1,1.5,0.2c0.3,0.1,0.6,0.3,0.8,0.6s0.3,0.6,0.3,1c0,0.5-0.1,0.9-0.4,1.2
					c-0.3,0.3-0.7,0.5-1.3,0.6c0.3,0.2,0.5,0.3,0.7,0.5c0.2,0.2,0.4,0.5,0.7,1l0.8,1.3H102l-0.9-1.4c-0.3-0.5-0.6-0.8-0.7-0.9
					c-0.1-0.1-0.3-0.2-0.4-0.3c-0.1,0-0.4-0.1-0.7-0.1h-0.3v2.7H97.8z M99.1,68h1c0.6,0,1,0,1.2-0.1s0.3-0.1,0.4-0.3
					s0.1-0.3,0.1-0.5c0-0.2-0.1-0.4-0.2-0.5c-0.1-0.1-0.3-0.2-0.5-0.3c-0.1,0-0.4,0-0.9,0h-1V68z"/>
			</g>
			<g>
				<path class="st83" d="M115.4,62.2v-6.4h1.3v2.9l2.6-2.9h1.7l-2.4,2.5l2.6,3.9h-1.7l-1.8-3l-1.1,1.1v1.9H115.4z"/>
			</g>
			<g>
				<path class="st83" d="M133.4,52.2v-6.4h4.8v1.1h-3.5v1.4h3.2v1.1h-3.2v1.8h3.6v1.1H133.4z"/>
			</g>
			<g>
				<path class="st83" d="M152.6,43.9v-5.4h-1.9v-1.1h5.1v1.1h-1.9v5.4H152.6z"/>
			</g>
		</g>
	</g>
	<g style="clip-path:url(#SVGID_56_);">
		<g>
			<path class="st105" d="M139.9,24.3L92.1,49.2c0,0-0.6-2.2-1.4-3.9c-0.9-1.7-2.4-3.4-2.4-3.4L136,17L139.9,24.3z"/>
			
				<rect x="118.6" y="34.1" transform="matrix(0.887 -0.4617 0.4617 0.887 -3.6968 60.5767)" class="st105" width="6.7" height="7.4"/>
			
				<rect x="128.8" y="28.8" transform="matrix(0.887 -0.4617 0.4617 0.887 -8.897872e-02 64.6906)" class="st105" width="6.7" height="7.4"/>
			<circle class="st105" cx="76.2" cy="52.8" r="16.3"/>
			<circle class="st105" cx="70.6" cy="55.8" r="4.7"/>
		</g>
	</g>
</g>
</svg>
