<?xml version="1.0" encoding="utf-8"?>
<!-- Generator: Adobe Illustrator 16.0.0, SVG Export Plug-In . SVG Version: 6.00 Build 0)  -->
<!DOCTYPE svg PUBLIC "-//W3C//DTD SVG 1.1//EN" "http://www.w3.org/Graphics/SVG/1.1/DTD/svg11.dtd">
<svg version="1.1" id="Layer_1" xmlns="http://www.w3.org/2000/svg" xmlns:xlink="http://www.w3.org/1999/xlink" x="0px" y="0px"
	 width="400px" height="99px" viewBox="0 101.5 400 99" enable-background="new 0 101.5 400 99" xml:space="preserve">
<g>
	<g>
		<g>
			<g>
				<defs>
					<rect id="SVGID_1_" y="76.01" width="400" height="170.024"/>
				</defs>
				<clipPath id="SVGID_2_">
					<use xlink:href="#SVGID_1_"  overflow="visible"/>
				</clipPath>
				<g clip-path="url(#SVGID_2_)">
					<g>
						<g>
							<g>
								
									<linearGradient id="SVGID_3_" gradientUnits="userSpaceOnUse" x1="15283.918" y1="-3222.6494" x2="15287.8359" y2="-3225.6821" gradientTransform="matrix(30.6539 0 0 32.5197 -468489.9375 105004)">
									<stop  offset="0" style="stop-color:#E5D57D"/>
									<stop  offset="0.5" style="stop-color:#C3A656"/>
									<stop  offset="1" style="stop-color:#E5D57D"/>
								</linearGradient>
								<path fill="url(#SVGID_3_)" d="M82.534,144.179c-2.314-0.898-4.683-1.689-7.104-2.334l-8.193,6.743l2.71,6.45l-0.708,1.284
									c7.876,1.738,15.083,5.259,21.177,10.112v-18.584c-1.533-0.84-3.101-1.621-4.702-2.339
									C84.346,146.82,82.432,145.648,82.534,144.179z"/>
								
									<linearGradient id="SVGID_4_" gradientUnits="userSpaceOnUse" x1="15293.7559" y1="-3220.8604" x2="15295.1826" y2="-3221.9648" gradientTransform="matrix(85.9685 0 0 72.1264 -1314776.5 232493.2656)">
									<stop  offset="0" style="stop-color:#E5D57D"/>
									<stop  offset="0.5" style="stop-color:#C3A656"/>
									<stop  offset="1" style="stop-color:#E5D57D"/>
								</linearGradient>
								<path fill="url(#SVGID_4_)" d="M69.365,173.603c1.074-1.489,3.56-0.806,3.354,1.294c1.89,0.835,3.696,1.826,5.4,2.954
									l6.099-3.521l6.191-3.896v-2.964c-6.235-4.956-13.623-8.516-21.694-10.22l-2.549,4.609l-6.479-4.048v-2.168l6.24-5.176
									l-0.342-9.395l8.54-4.629l3.359,3.706l-1.118,0.918c2.192,0.62,4.341,1.353,6.44,2.183c1.201-1.826,3.823-0.625,3.364,1.436
									c1.44,0.659,2.852,1.367,4.238,2.124v-16.899c-9.482-4.038-19.863-6.372-30.767-6.597c-0.435,1.504-2.764,2.002-3.525,0
									c-10.879,0.225-21.24,2.549-30.703,6.572v16.895c4.39-2.397,9.072-4.321,13.989-5.708l-1.123-0.923l3.359-3.706l8.54,4.629
									l-0.342,9.395l6.24,5.171v2.168l-6.479,4.048l-2.549-4.604c-3.643,0.767-7.148,1.914-10.469,3.394
									c0.454,1.826-1.88,3.159-3.237,1.587c-2.803,1.489-5.454,3.228-7.93,5.186v3.018l6.895,4.341l5.332,3.076
									C51.777,168.573,65.752,172.411,69.365,173.603z M52.466,149.101l0.928-12.48l-10.63-1.406
									c3.911-5.142,7.817-7.891,7.817-7.891l7.295,6.074l7.29-6.064c0,0,3.911,2.744,7.817,7.886l-10.63,1.406l0.933,12.485
									l-5.415,0.605L52.466,149.101z M57.876,161.273l7.593,2.393c-0.933,2.236-2.134,4.038-2.134,4.038l-10.913-0.005
									c0,0-1.206-1.802-2.134-4.038L57.876,161.273z"/>
								
									<linearGradient id="SVGID_5_" gradientUnits="userSpaceOnUse" x1="15290.3223" y1="-3226.7949" x2="15292.6816" y2="-3228.6211" gradientTransform="matrix(51.9985 0 0 20.7323 -795069.25 67095.4609)">
									<stop  offset="0" style="stop-color:#E5D57D"/>
									<stop  offset="0.5" style="stop-color:#C3A656"/>
									<stop  offset="1" style="stop-color:#E5D57D"/>
								</linearGradient>
								<path fill="url(#SVGID_5_)" d="M72.358,175.771c-0.83,1.289-3.379,0.884-3.311-1.23c-3.472-1.108-16.704-4.81-30.811,3.979
									l13.784,8.682l2.236,1.289c3.618-0.591,6.06-0.2,7.236,0l2.93-1.689l13.125-8.267
									C75.903,177.479,74.17,176.552,72.358,175.771z"/>
								
									<linearGradient id="SVGID_6_" gradientUnits="userSpaceOnUse" x1="15285.0625" y1="-3223.4219" x2="15288.9902" y2="-3226.4624" gradientTransform="matrix(30.5728 0 0 32.4508 -467304.1875 104782.4063)">
									<stop  offset="0" style="stop-color:#E5D57D"/>
									<stop  offset="0.5" style="stop-color:#C3A656"/>
									<stop  offset="1" style="stop-color:#E5D57D"/>
								</linearGradient>
								<path fill="url(#SVGID_6_)" d="M36.123,159.809c3.301-1.509,6.782-2.69,10.405-3.491l-0.708-1.284l2.71-6.45l-8.193-6.738
									c-5.249,1.401-10.254,3.423-14.922,5.977v18.555c2.358-1.87,4.883-3.535,7.549-4.98
									C32.71,159.408,35.01,158.568,36.123,159.809z"/>
								<g opacity="0.29">
									
										<linearGradient id="SVGID_7_" gradientUnits="userSpaceOnUse" x1="15285.0625" y1="-3223.4219" x2="15288.9902" y2="-3226.4624" gradientTransform="matrix(30.5728 0 0 32.4508 -467304.1875 104782.4063)">
										<stop  offset="0" style="stop-color:#E5D57D"/>
										<stop  offset="0.5" style="stop-color:#C3A656"/>
										<stop  offset="1" style="stop-color:#E5D57D"/>
									</linearGradient>
									<path fill="url(#SVGID_7_)" d="M36.123,159.809c3.301-1.509,6.782-2.69,10.405-3.491l-0.708-1.284l2.71-6.45l-8.193-6.738
										c-5.249,1.401-10.254,3.423-14.922,5.977v18.555c2.358-1.87,4.883-3.535,7.549-4.98
										C32.71,159.408,35.01,158.568,36.123,159.809z"/>
								</g>
								
									<linearGradient id="SVGID_8_" gradientUnits="userSpaceOnUse" x1="15229.7422" y1="-3293.8086" x2="15248.6689" y2="-3308.459" gradientTransform="matrix(6.4823 0 0 2.237 -98716.5078 7571.5044)">
									<stop  offset="0" style="stop-color:#E5D57D"/>
									<stop  offset="0.5" style="stop-color:#C3A656"/>
									<stop  offset="1" style="stop-color:#E5D57D"/>
								</linearGradient>
								<path fill="url(#SVGID_8_)" d="M55.454,189.359l2.456,1.548l2.446-1.543c-0.811-0.098-1.636-0.151-2.476-0.151
									C57.056,189.213,56.25,189.267,55.454,189.359z"/>
								
									<linearGradient id="SVGID_9_" gradientUnits="userSpaceOnUse" x1="15292.4414" y1="-3224.0527" x2="15294.002" y2="-3225.2612" gradientTransform="matrix(78.5841 0 0 24.7911 -1201801.5 80078.3047)">
									<stop  offset="0" style="stop-color:#E5D57D"/>
									<stop  offset="0.5" style="stop-color:#C3A656"/>
									<stop  offset="1" style="stop-color:#E5D57D"/>
								</linearGradient>
								<path fill="url(#SVGID_9_)" d="M75.942,120.38L57.91,109.022l-17.3,10.898l-12.358,7.783
									c8.682-3.315,18.057-5.22,27.852-5.425c0.591-1.86,3.037-1.772,3.555,0c9.854,0.205,19.282,2.134,28.008,5.488
									L75.942,120.38z"/>
							</g>
							<g>
								
									<linearGradient id="SVGID_10_" gradientUnits="userSpaceOnUse" x1="15294.2344" y1="-3220.0557" x2="15295.458" y2="-3221.0029" gradientTransform="matrix(93.0826 0 0 117.0452 -1423614.5 377086.25)">
									<stop  offset="0" style="stop-color:#E5D57D"/>
									<stop  offset="0.5" style="stop-color:#C3A656"/>
									<stop  offset="1" style="stop-color:#E5D57D"/>
								</linearGradient>
								<path fill="url(#SVGID_10_)" d="M57.91,194.247l-35.19-22.148v-44.199l35.19-22.148l35.19,22.148v44.199L57.91,194.247z
									 M23.999,171.391l33.911,21.343l33.906-21.343v-42.783L57.91,107.26l-33.911,21.343V171.391z"/>
							</g>
						</g>
						<g>
							<g enable-background="new    ">
								<path fill="#E5D57D" d="M137.808,141.479l0.029,0.093c0.039,2.417-0.693,4.307-2.207,5.679
									c-1.514,1.367-3.604,2.056-6.27,2.056c-2.715,0-4.912-0.874-6.582-2.622s-2.505-4.004-2.505-6.772v-4.497
									c0-2.759,0.815-5.015,2.441-6.772s3.765-2.637,6.411-2.637c2.759,0,4.917,0.674,6.47,2.021
									c1.558,1.348,2.314,3.247,2.271,5.693l-0.029,0.093h-4.419c0-1.45-0.352-2.534-1.05-3.242s-1.782-1.064-3.242-1.064
									c-1.357,0-2.417,0.547-3.184,1.641c-0.762,1.094-1.143,2.505-1.143,4.238v4.526c0,1.743,0.4,3.164,1.206,4.263
									s1.919,1.65,3.354,1.65c1.357,0,2.373-0.356,3.042-1.064s1.001-1.802,1.001-3.276h4.404V141.479z"/>
								<path fill="#E5D57D" d="M145.635,139.921v9.053h-4.541v-22.651h7.842c2.583,0,4.6,0.591,6.06,1.768
									c1.455,1.177,2.188,2.817,2.188,4.922c0,1.162-0.308,2.163-0.928,3.008c-0.615,0.845-1.519,1.528-2.7,2.046
									c1.338,0.396,2.3,1.055,2.886,1.978s0.879,2.065,0.879,3.423v1.665c0,0.635,0.088,1.294,0.259,1.982
									s0.464,1.201,0.879,1.533v0.327h-4.683c-0.415-0.332-0.684-0.879-0.801-1.65c-0.117-0.767-0.181-1.509-0.181-2.227v-1.602
									c0-1.128-0.308-2.007-0.928-2.637c-0.615-0.625-1.489-0.942-2.622-0.942h-3.608V139.921z M145.635,136.42h3.218
									c1.274,0,2.227-0.269,2.847-0.811c0.62-0.537,0.933-1.338,0.933-2.397c0-1.035-0.313-1.86-0.942-2.476
									c-0.63-0.61-1.548-0.918-2.759-0.918h-3.296V136.42z"/>
								<path fill="#E5D57D" d="M168.638,136.767h0.093l4.946-10.439h4.976l-7.764,14.683v7.964h-4.541v-8.198l-7.637-14.453h4.976
									L168.638,136.767z"/>
								<path fill="#E5D57D" d="M185.454,140.761v8.213h-4.541v-22.651h8.667c2.603,0,4.653,0.664,6.143,1.992
									c1.494,1.328,2.241,3.076,2.241,5.244s-0.747,3.911-2.241,5.225c-1.494,1.318-3.54,1.978-6.143,1.978H185.454z
									 M185.454,137.265h4.121c1.265,0,2.227-0.347,2.876-1.035c0.654-0.688,0.981-1.567,0.981-2.637
									c0-1.089-0.322-1.987-0.972-2.7c-0.649-0.708-1.611-1.064-2.886-1.064h-4.121V137.265z"/>
								<path fill="#E5D57D" d="M217.002,129.828h-6.47v19.15h-4.541v-19.15h-6.382v-3.501h17.393V129.828z"/>
								<path fill="#E5D57D" d="M229.604,144.091h-7.344l-1.523,4.883h-4.746l7.637-22.651h4.653l7.607,22.651h-4.746
									L229.604,144.091z M223.379,140.531h5.117l-2.505-7.979h-0.093L223.379,140.531z"/>
								<path fill="#E5D57D" d="M254.883,141.479l0.029,0.093c0.039,2.417-0.693,4.307-2.207,5.679
									c-1.514,1.367-3.604,2.056-6.27,2.056c-2.715,0-4.912-0.874-6.582-2.622s-2.505-4.004-2.505-6.772v-4.497
									c0-2.759,0.815-5.015,2.441-6.772s3.765-2.637,6.411-2.637c2.759,0,4.917,0.674,6.47,2.021
									c1.558,1.348,2.314,3.247,2.271,5.693l-0.029,0.093h-4.419c0-1.45-0.352-2.534-1.05-3.242s-1.782-1.064-3.242-1.064
									c-1.357,0-2.417,0.547-3.184,1.641c-0.762,1.094-1.143,2.505-1.143,4.238v4.526c0,1.743,0.4,3.164,1.206,4.263
									s1.919,1.65,3.354,1.65c1.357,0,2.373-0.356,3.042-1.064s1.001-1.802,1.001-3.276h4.404V141.479z"/>
								<path fill="#E5D57D" d="M276.475,148.974h-4.541v-9.409h-9.224v9.409h-4.541v-22.651h4.541v9.736h9.224v-9.736h4.541
									V148.974z"/>
								<path fill="#E5D57D" d="M292.354,143.017h0.093l5.82-16.689h5.928v22.651h-4.541v-15.464l-0.093-0.015l-5.601,15.479h-3.081
									l-5.601-15.508l-0.093,0.015v15.493h-4.541v-22.651h5.957L292.354,143.017z"/>
								<path fill="#E5D57D" d="M321.304,139.022h-8.398v6.47h9.985v3.486h-14.531v-22.651h14.497v3.501H312.9v5.693h8.398v3.501
									H321.304z"/>
								<path fill="#E5D57D" d="M344.39,148.974h-4.541l-9.131-15.273l-0.093,0.015v15.259h-4.541v-22.651h4.541l9.131,15.259
									l0.093-0.015v-15.244h4.541V148.974z"/>
								<path fill="#E5D57D" d="M363.896,129.828h-6.47v19.15h-4.541v-19.15h-6.377v-3.501h17.393v3.501H363.896z"/>
							</g>
						</g>
						<g enable-background="new    ">
							<path fill="#C3A656" d="M150.244,175.497c-0.415,0.649-1.138,1.245-2.168,1.787s-2.363,0.815-4.004,0.815
								c-2.017,0-3.687-0.669-5.005-2.007s-1.982-3.066-1.982-5.186v-3.599c0-2.119,0.635-3.848,1.909-5.186s2.91-2.007,4.922-2.007
								c1.943,0,3.481,0.518,4.609,1.553s1.675,2.354,1.646,3.955l-0.024,0.073h-2.271c0-1.064-0.342-1.948-1.03-2.661
								c-0.688-0.708-1.665-1.064-2.93-1.064c-1.338,0-2.412,0.498-3.228,1.499s-1.226,2.271-1.226,3.804v3.623
								c0,1.553,0.43,2.832,1.294,3.833c0.864,1.006,1.968,1.509,3.311,1.509c1.03,0,1.851-0.132,2.456-0.4s1.055-0.586,1.353-0.952
								v-3.936h-3.96v-1.851h6.328V175.497z"/>
							<path fill="#C3A656" d="M159.375,178.104c-1.865,0-3.32-0.596-4.365-1.787s-1.567-2.759-1.567-4.707v-0.527
								c0-1.865,0.537-3.408,1.616-4.629c1.074-1.221,2.393-1.831,3.945-1.831c1.738,0,3.037,0.542,3.906,1.621
								s1.304,2.515,1.304,4.312v1.25h-8.306l-0.034,0.059c0,1.304,0.288,2.363,0.864,3.174s1.455,1.221,2.642,1.221
								c0.801,0,1.504-0.112,2.104-0.342c0.605-0.229,1.123-0.542,1.553-0.942l0.923,1.538c-0.464,0.449-1.074,0.825-1.836,1.133
								C161.367,177.948,160.449,178.104,159.375,178.104z M159.004,166.483c-0.825,0-1.509,0.317-2.046,0.952
								c-0.542,0.635-0.869,1.45-0.991,2.441l0.024,0.059h5.859v-0.19c0-0.942-0.234-1.724-0.698-2.339
								S159.971,166.483,159.004,166.483z"/>
							<path fill="#C3A656" d="M170.156,161.732v3.135h2.461v1.753h-2.461v7.886c0,0.61,0.127,1.035,0.376,1.284
								c0.254,0.249,0.586,0.371,1.001,0.371c0.137,0,0.288-0.02,0.454-0.054s0.308-0.073,0.42-0.112l0.322,1.621
								c-0.176,0.142-0.435,0.264-0.781,0.356c-0.342,0.093-0.684,0.137-1.021,0.137c-0.962,0-1.724-0.288-2.295-0.869
								c-0.566-0.581-0.854-1.489-0.854-2.729v-7.886h-2.065v-1.753h2.065v-3.135h2.378V161.732z"/>
							<path fill="#C3A656" d="M187.402,166.952l-1.211-0.073c-0.625,0-1.152,0.146-1.577,0.444c-0.43,0.298-0.757,0.713-0.991,1.25
								v9.277h-2.363v-12.988h2.114l0.229,1.895c0.366-0.674,0.82-1.196,1.362-1.572s1.162-0.566,1.865-0.566
								c0.176,0,0.342,0.015,0.503,0.044s0.293,0.059,0.396,0.088L187.402,166.952z"/>
							<path fill="#C3A656" d="M192.422,161.537h-2.363v-2.412h2.363V161.537z M192.422,177.851h-2.363v-12.988h2.363V177.851z"/>
							<path fill="#C3A656" d="M201.221,176.254c0.728,0,1.362-0.244,1.909-0.728c0.542-0.483,0.815-1.079,0.815-1.782h2.139
								l0.034,0.073c0.034,1.118-0.449,2.114-1.44,2.983s-2.144,1.304-3.457,1.304c-1.826,0-3.232-0.62-4.224-1.86
								s-1.489-2.783-1.489-4.634v-0.503c0-1.831,0.498-3.369,1.494-4.614s2.402-1.865,4.219-1.865c1.45,0,2.637,0.449,3.56,1.343
								c0.923,0.898,1.372,1.997,1.338,3.301l-0.024,0.073h-2.148c0-0.791-0.259-1.465-0.776-2.021s-1.167-0.835-1.948-0.835
								c-1.162,0-2.007,0.449-2.539,1.353c-0.532,0.898-0.796,1.992-0.796,3.271v0.503c0,1.304,0.264,2.402,0.786,3.301
								C199.194,175.805,200.044,176.254,201.221,176.254z"/>
							<path fill="#C3A656" d="M211.289,166.605c0.449-0.625,0.996-1.108,1.65-1.46c0.654-0.347,1.372-0.522,2.168-0.522
								c1.387,0,2.461,0.415,3.232,1.25c0.771,0.83,1.157,2.114,1.157,3.843v8.14h-2.363v-8.164c0-1.074-0.229-1.865-0.688-2.378
								s-1.147-0.767-2.061-0.767c-0.703,0-1.318,0.137-1.836,0.415c-0.522,0.278-0.942,0.664-1.26,1.157v9.736h-2.363V159.13h2.363
								V166.605z"/>
							<path fill="#C3A656" d="M240.098,171.85c0,1.87-0.449,3.384-1.353,4.531c-0.898,1.147-2.139,1.724-3.716,1.724
								c-0.864,0-1.616-0.171-2.251-0.508s-1.162-0.84-1.577-1.509l-0.386,1.763h-1.812v-18.726h2.363v7.275
								c0.41-0.576,0.913-1.016,1.519-1.318s1.309-0.454,2.119-0.454c1.602,0,2.847,0.64,3.745,1.919s1.343,2.964,1.343,5.054v0.249
								H240.098z M237.734,171.596c0-1.489-0.273-2.7-0.82-3.643s-1.382-1.411-2.505-1.411c-0.728,0-1.343,0.176-1.841,0.532
								s-0.898,0.835-1.196,1.436v5.63c0.303,0.64,0.703,1.143,1.196,1.499c0.493,0.361,1.113,0.542,1.865,0.542
								c1.113,0,1.938-0.396,2.485-1.187c0.542-0.791,0.815-1.841,0.815-3.145V171.596L237.734,171.596z"/>
							<path fill="#C3A656" d="M246.816,173.036l0.42,1.631h0.073l3.193-9.805h2.627l-5.459,14.98
								c-0.327,0.874-0.796,1.631-1.411,2.28c-0.61,0.649-1.44,0.972-2.48,0.972c-0.19,0-0.435-0.024-0.732-0.068
								s-0.522-0.088-0.684-0.127l0.239-1.86c-0.049-0.01,0.093,0,0.425,0.024s0.542,0.034,0.63,0.034
								c0.503,0,0.918-0.225,1.235-0.674c0.322-0.449,0.586-0.942,0.806-1.489l0.566-1.357l-4.824-12.725h2.642L246.816,173.036z"/>
							<path fill="#C3A656" d="M268.867,174.359c0-0.522-0.2-0.942-0.596-1.274c-0.396-0.327-1.147-0.615-2.251-0.864
								c-1.528-0.327-2.705-0.786-3.521-1.382c-0.82-0.591-1.23-1.382-1.23-2.378c0-1.055,0.449-1.958,1.353-2.715
								c0.898-0.752,2.065-1.128,3.501-1.128c1.475,0,2.666,0.4,3.579,1.201s1.348,1.733,1.309,2.798l-0.024,0.073h-2.256
								c0-0.562-0.244-1.069-0.737-1.523s-1.113-0.684-1.865-0.684c-0.83,0-1.455,0.19-1.865,0.566s-0.62,0.825-0.62,1.343
								c0,0.513,0.176,0.908,0.532,1.187s1.089,0.537,2.202,0.767c1.592,0.337,2.803,0.811,3.623,1.431
								c0.825,0.615,1.235,1.421,1.235,2.412c0,1.152-0.464,2.095-1.396,2.822s-2.148,1.094-3.657,1.094
								c-1.655,0-2.959-0.42-3.911-1.26s-1.406-1.821-1.357-2.939l0.024-0.073h2.256c0.039,0.84,0.352,1.455,0.938,1.841
								c0.586,0.391,1.27,0.581,2.051,0.581c0.84,0,1.499-0.176,1.973-0.532S268.867,174.911,268.867,174.359z"/>
							<path fill="#C3A656" d="M279.551,178.104c-1.865,0-3.32-0.596-4.365-1.787s-1.567-2.759-1.567-4.707v-0.527
								c0-1.865,0.537-3.408,1.616-4.629c1.074-1.221,2.393-1.831,3.945-1.831c1.738,0,3.037,0.542,3.906,1.621
								s1.304,2.515,1.304,4.312v1.25h-8.306l-0.034,0.059c0,1.304,0.288,2.363,0.864,3.174s1.455,1.221,2.642,1.221
								c0.801,0,1.504-0.112,2.104-0.342c0.605-0.229,1.123-0.542,1.553-0.942l0.923,1.538c-0.464,0.449-1.074,0.825-1.836,1.133
								C281.538,177.948,280.625,178.104,279.551,178.104z M279.18,166.483c-0.825,0-1.509,0.317-2.046,0.952
								c-0.542,0.635-0.869,1.45-0.991,2.441l0.024,0.059h5.859v-0.19c0-0.942-0.234-1.724-0.698-2.339
								S280.146,166.483,279.18,166.483z"/>
							<path fill="#C3A656" d="M289.155,164.862l0.166,1.934c0.43-0.688,0.977-1.221,1.626-1.602
								c0.654-0.381,1.396-0.571,2.227-0.571c1.401,0,2.485,0.41,3.252,1.23s1.152,2.085,1.152,3.799v8.198h-2.363v-8.149
								c0-1.143-0.225-1.958-0.679-2.437s-1.143-0.718-2.07-0.718c-0.728,0-1.348,0.146-1.855,0.439s-0.908,0.703-1.206,1.23v9.639
								h-2.363v-12.988h2.114V164.862z"/>
							<path fill="#C3A656" d="M300.474,171.596c0-2.09,0.444-3.774,1.338-5.054s2.144-1.919,3.75-1.919
								c0.762,0,1.436,0.142,2.021,0.42s1.089,0.688,1.509,1.226v-7.144h2.363v18.726h-1.812l-0.361-1.646
								c-0.425,0.625-0.947,1.099-1.572,1.416c-0.625,0.322-1.348,0.479-2.173,0.479c-1.582,0-2.827-0.576-3.721-1.724
								c-0.898-1.147-1.343-2.656-1.343-4.531V171.596L300.474,171.596z M302.837,171.85c0,1.313,0.269,2.363,0.806,3.149
								s1.367,1.182,2.495,1.182c0.703,0,1.294-0.161,1.777-0.479c0.479-0.322,0.874-0.767,1.177-1.343v-6.06
								c-0.303-0.537-0.698-0.962-1.182-1.279s-1.064-0.474-1.748-0.474c-1.138,0-1.973,0.469-2.515,1.406s-0.811,2.153-0.811,3.647
								V171.85z"/>
							<path fill="#C3A656" d="M317.539,161.537h-2.363v-2.412h2.363V161.537z M317.539,177.851h-2.363v-12.988h2.363V177.851z"/>
							<path fill="#C3A656" d="M323.291,164.862l0.166,1.934c0.43-0.688,0.977-1.221,1.626-1.602
								c0.654-0.381,1.396-0.571,2.227-0.571c1.401,0,2.485,0.41,3.252,1.23s1.152,2.085,1.152,3.799v8.198h-2.363v-8.149
								c0-1.143-0.225-1.958-0.679-2.437s-1.143-0.718-2.07-0.718c-0.728,0-1.348,0.146-1.855,0.439s-0.908,0.703-1.206,1.23v9.639
								h-2.363v-12.988h2.114V164.862z"/>
							<path fill="#C3A656" d="M334.727,171.596c0-2.09,0.444-3.774,1.338-5.054s2.139-1.919,3.74-1.919
								c0.825,0,1.548,0.166,2.173,0.498s1.147,0.811,1.572,1.436l0.288-1.694h1.885v13.062c0,1.665-0.483,2.944-1.45,3.833
								c-0.967,0.894-2.363,1.338-4.189,1.338c-0.625,0-1.299-0.088-2.021-0.259s-1.362-0.405-1.914-0.703l0.361-1.836
								c0.454,0.239,1.006,0.435,1.65,0.581s1.279,0.22,1.904,0.22c1.152,0,1.992-0.264,2.515-0.786s0.786-1.323,0.786-2.393v-1.475
								c-0.425,0.542-0.933,0.957-1.523,1.235s-1.274,0.42-2.051,0.42c-1.582,0-2.822-0.576-3.716-1.724s-1.338-2.656-1.338-4.531
								v-0.249H334.727z M337.095,171.85c0,1.304,0.269,2.354,0.806,3.145s1.362,1.187,2.485,1.187c0.713,0,1.309-0.161,1.787-0.488
								c0.479-0.322,0.874-0.781,1.187-1.372v-5.977c-0.303-0.552-0.698-0.991-1.187-1.313s-1.074-0.488-1.763-0.488
								c-1.128,0-1.963,0.469-2.505,1.406s-0.811,2.153-0.811,3.647V171.85z"/>
						</g>
					</g>
				</g>
			</g>
		</g>
	</g>
</g>
</svg>
