<?xml version="1.0" encoding="utf-8"?>
<!-- Generator: Adobe Illustrator 16.0.0, SVG Export Plug-In . SVG Version: 6.00 Build 0)  -->
<!DOCTYPE svg PUBLIC "-//W3C//DTD SVG 1.1//EN" "http://www.w3.org/Graphics/SVG/1.1/DTD/svg11.dtd">
<svg version="1.1" id="Layer_1" xmlns="http://www.w3.org/2000/svg" xmlns:xlink="http://www.w3.org/1999/xlink" x="0px" y="0px"
	 width="400px" height="89.376px" viewBox="0 155.5 400 89.376" enable-background="new 0 155.5 400 89.376" xml:space="preserve">
<g>
	<g>
		<g>
			<g>
				<g>
					<g>
						<g enable-background="new    ">
							<path fill="#E5D57D" d="M44.737,182.573l0.044,0.139c0.059,3.619-1.038,6.447-3.304,8.501
								c-2.266,2.047-5.395,3.078-9.386,3.078c-4.064,0-7.354-1.309-9.854-3.925c-2.5-2.617-3.75-5.995-3.75-10.139v-6.732
								c0-4.13,1.221-7.507,3.655-10.139c2.435-2.632,5.636-3.948,9.598-3.948c4.13,0,7.361,1.009,9.686,3.026
								c2.332,2.018,3.465,4.861,3.399,8.523l-0.044,0.139h-6.616c0-2.171-0.526-3.794-1.571-4.854
								c-1.045-1.06-2.668-1.594-4.854-1.594c-2.032,0-3.618,0.819-4.766,2.457c-1.14,1.637-1.71,3.75-1.71,6.345v6.776
								c0,2.61,0.6,4.737,1.806,6.382c1.206,1.645,2.873,2.471,5.022,2.471c2.032,0,3.552-0.534,4.554-1.594
								s1.499-2.697,1.499-4.905h6.594V182.573z"/>
							<path fill="#E5D57D" d="M56.447,180.249v13.553h-6.798V159.89h11.74c3.867,0,6.886,0.885,9.072,2.646
								c2.178,1.762,3.275,4.218,3.275,7.368c0,1.74-0.46,3.238-1.389,4.503c-0.921,1.265-2.273,2.288-4.042,3.063
								c2.003,0.592,3.443,1.579,4.32,2.96c0.877,1.382,1.315,3.092,1.315,5.125v2.493c0,0.95,0.132,1.937,0.388,2.968
								s0.694,1.798,1.315,2.295v0.49h-7.01c-0.621-0.497-1.023-1.316-1.199-2.471c-0.175-1.148-0.271-2.259-0.271-3.333V185.6
								c0-1.689-0.46-3.004-1.389-3.948c-0.921-0.936-2.229-1.411-3.925-1.411h-5.402V180.249z M56.447,175.007h4.817
								c1.908,0,3.333-0.402,4.262-1.213c0.928-0.804,1.396-2.003,1.396-3.589c0-1.55-0.468-2.785-1.411-3.706
								c-0.943-0.914-2.317-1.375-4.13-1.375h-4.935V175.007z"/>
							<path fill="#E5D57D" d="M90.892,175.519h0.139l7.405-15.629h7.449l-11.623,21.981v11.923h-6.798v-12.266L76.031,159.89h7.449
								L90.892,175.519z"/>
							<path fill="#E5D57D" d="M116.067,181.506v12.295h-6.798V159.89h12.975c3.896,0,6.966,0.994,9.196,2.983
								c2.237,1.988,3.355,4.605,3.355,7.851s-1.119,5.855-3.355,7.822c-2.237,1.974-5.3,2.96-9.196,2.96H116.067z M116.067,176.265
								h6.169c1.894,0,3.333-0.519,4.306-1.55c0.979-1.031,1.469-2.347,1.469-3.947c0-1.63-0.482-2.975-1.455-4.042
								c-0.972-1.06-2.413-1.593-4.32-1.593h-6.169V176.265z"/>
							<path fill="#E5D57D" d="M163.297,165.132h-9.686v28.669h-6.798v-28.669h-9.547v-5.242h26.038v5.242H163.297z"/>
							<path fill="#E5D57D" d="M182.164,186.491h-10.994l-2.281,7.31h-7.105l11.433-33.911h6.966l11.389,33.911h-7.105
								L182.164,186.491z M172.844,181.155h7.661l-3.75-11.944h-0.139L172.844,181.155z"/>
							<path fill="#E5D57D" d="M220.008,182.573l0.043,0.139c0.059,3.619-1.037,6.447-3.304,8.501
								c-2.267,2.047-5.395,3.078-9.386,3.078c-4.064,0-7.354-1.309-9.854-3.925c-2.5-2.617-3.75-5.995-3.75-10.139v-6.732
								c0-4.13,1.221-7.507,3.655-10.139c2.435-2.632,5.637-3.948,9.598-3.948c4.131,0,7.361,1.009,9.686,3.026
								c2.332,2.018,3.465,4.861,3.4,8.523l-0.045,0.139h-6.615c0-2.171-0.526-3.794-1.571-4.854
								c-1.046-1.06-2.669-1.594-4.854-1.594c-2.031,0-3.618,0.819-4.766,2.457c-1.141,1.637-1.711,3.75-1.711,6.345v6.776
								c0,2.61,0.6,4.737,1.807,6.382c1.205,1.645,2.872,2.471,5.021,2.471c2.031,0,3.553-0.534,4.554-1.594
								s1.499-2.697,1.499-4.905h6.594V182.573z"/>
							<path fill="#E5D57D" d="M252.332,193.801h-6.799v-14.094h-13.809v14.086h-6.798V159.89h6.798v14.576h13.809V159.89h6.799
								V193.801z"/>
							<path fill="#E5D57D" d="M276.104,184.883h0.139l8.714-24.985h8.874v33.911h-6.798V170.65l-0.14-0.021l-8.384,23.172h-4.612
								l-8.385-23.216l-0.139,0.022v23.194h-6.799V159.89h8.918L276.104,184.883z"/>
							<path fill="#E5D57D" d="M319.444,178.896h-12.573v9.686h14.949v5.219h-21.747V159.89h21.703v5.242h-14.905v8.523h12.573
								V178.896z"/>
							<path fill="#E5D57D" d="M354.006,193.801h-6.798l-13.67-22.866l-0.139,0.022v22.844h-6.799V159.89h6.799l13.669,22.844
								l0.14-0.022V159.89h6.798V193.801z"/>
							<path fill="#E5D57D" d="M383.209,165.132h-9.686v28.669h-6.798v-28.669h-9.547v-5.242h26.038v5.242H383.209z"/>
						</g>
					</g>
					<g>
						<path fill="#E5D57D" d="M63.355,233.509c-0.622,0.972-1.704,1.864-3.246,2.675c-1.542,0.813-3.538,1.221-5.994,1.221
							c-3.019,0-5.519-1.001-7.493-3.004c-1.974-2.003-2.968-4.59-2.968-7.764v-5.387c0-3.172,0.951-5.76,2.858-7.764
							c1.908-2.002,4.357-3.004,7.369-3.004c2.909,0,5.212,0.775,6.9,2.324c1.688,1.551,2.507,3.523,2.463,5.922l-0.037,0.109H59.81
							c0-1.594-0.512-2.917-1.542-3.984c-1.031-1.06-2.493-1.594-4.386-1.594c-2.003,0-3.611,0.746-4.832,2.244
							c-1.221,1.499-1.835,3.399-1.835,5.695v5.424c0,2.324,0.644,4.24,1.937,5.738c1.294,1.506,2.946,2.252,4.957,2.252
							c1.542,0,2.771-0.198,3.677-0.6c0.906-0.402,1.579-0.878,2.025-1.426v-5.893h-5.928v-2.77h9.466v9.583H63.355z"/>
						<path fill="#E5D57D" d="M77.025,237.404c-2.792,0-4.971-0.891-6.535-2.675s-2.347-4.13-2.347-7.047v-0.79
							c0-2.791,0.804-5.102,2.42-6.93c1.608-1.827,3.582-2.74,5.906-2.74c2.603,0,4.547,0.811,5.848,2.426
							c1.301,1.616,1.952,3.766,1.952,6.455v1.871H71.835l-0.051,0.088c0,1.952,0.431,3.539,1.294,4.752
							c0.862,1.213,2.178,1.827,3.955,1.827c1.199,0,2.251-0.168,3.15-0.512c0.907-0.343,1.682-0.812,2.325-1.411l1.381,2.303
							c-0.694,0.673-1.608,1.236-2.749,1.696C80,237.171,78.633,237.404,77.025,237.404z M76.469,220.008
							c-1.235,0-2.259,0.475-3.063,1.425c-0.811,0.95-1.301,2.171-1.484,3.655l0.037,0.088h8.772v-0.285
							c0-1.411-0.351-2.58-1.045-3.502C78.991,220.475,77.917,220.008,76.469,220.008z"/>
						<path fill="#E5D57D" d="M93.165,212.895v4.693h3.685v2.624h-3.685v11.806c0,0.914,0.19,1.55,0.563,1.922
							c0.38,0.373,0.877,0.557,1.499,0.557c0.205,0,0.431-0.029,0.68-0.081c0.249-0.051,0.461-0.109,0.629-0.168l0.482,2.427
							c-0.263,0.212-0.65,0.395-1.169,0.533c-0.512,0.14-1.023,0.205-1.528,0.205c-1.44,0-2.581-0.432-3.436-1.301
							c-0.848-0.87-1.279-2.229-1.279-4.086v-11.807h-3.092v-2.623h3.092v-4.693h3.56V212.895z"/>
						<path fill="#E5D57D" d="M118.984,220.709l-1.813-0.109c-0.936,0-1.725,0.219-2.361,0.665
							c-0.644,0.446-1.133,1.067-1.484,1.871v13.89h-3.538V217.58h3.165l0.344,2.836c0.548-1.008,1.228-1.79,2.04-2.354
							c0.811-0.563,1.74-0.848,2.792-0.848c0.263,0,0.512,0.021,0.753,0.066c0.242,0.043,0.439,0.087,0.592,0.131L118.984,220.709z"
							/>
						<path fill="#E5D57D" d="M126.499,212.609h-3.545v-3.611h3.538v3.611H126.499z M126.499,237.025h-3.545V217.58h3.538v19.445
							H126.499z"/>
						<path fill="#E5D57D" d="M139.671,234.635c1.089,0,2.04-0.365,2.858-1.09c0.812-0.723,1.221-1.615,1.221-2.668h3.202
							l0.051,0.109c0.051,1.674-0.672,3.166-2.156,4.467s-3.209,1.951-5.176,1.951c-2.734,0-4.839-0.928-6.323-2.784
							s-2.229-4.167-2.229-6.938v-0.753c0-2.741,0.746-5.044,2.237-6.908c1.491-1.863,3.596-2.792,6.315-2.792
							c2.171,0,3.948,0.673,5.329,2.011c1.381,1.345,2.054,2.989,2.003,4.941l-0.037,0.109h-3.216c0-1.184-0.387-2.193-1.162-3.026
							s-1.747-1.25-2.917-1.25c-1.74,0-3.004,0.673-3.801,2.024c-0.797,1.346-1.192,2.982-1.192,4.898v0.752
							c0,1.952,0.395,3.604,1.177,4.941C136.637,233.969,137.909,234.635,139.671,234.635z"/>
						<path fill="#E5D57D" d="M154.744,220.189c0.672-0.936,1.491-1.658,2.471-2.186c0.979-0.519,2.054-0.781,3.246-0.781
							c2.076,0,3.684,0.621,4.839,1.871c1.155,1.242,1.732,3.165,1.732,5.753v12.186h-3.538v-12.222
							c0-1.609-0.344-2.793-1.031-3.561s-1.718-1.147-3.085-1.147c-1.052,0-1.974,0.204-2.749,0.621
							c-0.782,0.417-1.411,0.994-1.886,1.732v14.576h-3.538v-28.034h3.538V220.189L154.744,220.189z"/>
						<path fill="#E5D57D" d="M197.873,228.041c0,2.8-0.673,5.066-2.025,6.783c-1.345,1.719-3.202,2.58-5.563,2.58
							c-1.294,0-2.419-0.256-3.37-0.76c-0.95-0.512-1.74-1.258-2.361-2.259l-0.578,2.64h-2.712v-28.034h3.538v10.892
							c0.614-0.862,1.367-1.52,2.273-1.974c0.906-0.453,1.959-0.68,3.172-0.68c2.397,0,4.262,0.958,5.607,2.873
							c1.345,1.915,2.01,4.437,2.01,7.565v0.373H197.873z M194.328,227.668c0-2.229-0.41-4.042-1.228-5.453
							c-0.819-1.41-2.069-2.112-3.75-2.112c-1.089,0-2.01,0.271-2.756,0.796c-0.746,0.534-1.345,1.25-1.791,2.15v8.428
							c0.453,0.957,1.053,1.711,1.791,2.244c0.738,0.541,1.667,0.812,2.792,0.812c1.667,0,2.902-0.593,3.721-1.776
							c0.811-1.184,1.221-2.756,1.221-4.707V227.668L194.328,227.668z"/>
						<path fill="#E5D57D" d="M207.932,229.824l0.629,2.441h0.109l4.78-14.678h3.933l-8.172,22.42
							c-0.49,1.309-1.191,2.441-2.113,3.413c-0.914,0.972-2.156,1.455-3.713,1.455c-0.285,0-0.65-0.036-1.097-0.103
							s-0.782-0.132-1.023-0.189l0.358-2.785c-0.073-0.016,0.139,0,0.636,0.036s0.812,0.051,0.942,0.051
							c0.754,0,1.375-0.336,1.85-1.009c0.482-0.672,0.877-1.41,1.207-2.229l0.848-2.032l-7.223-19.049h3.955L207.932,229.824z"/>
						<path fill="#E5D57D" d="M240.943,231.799c0-0.783-0.301-1.412-0.893-1.908c-0.592-0.49-1.717-0.922-3.369-1.294
							c-2.289-0.489-4.05-1.177-5.271-2.069c-1.228-0.885-1.842-2.068-1.842-3.56c0-1.579,0.673-2.938,2.025-4.064
							c1.345-1.126,3.092-1.688,5.241-1.688c2.208,0,3.991,0.6,5.358,1.799c1.367,1.198,2.018,2.595,1.959,4.188l-0.037,0.11h-3.377
							c0-0.841-0.365-1.601-1.104-2.28s-1.667-1.023-2.793-1.023c-1.242,0-2.178,0.285-2.792,0.848s-0.929,1.235-0.929,2.01
							c0,0.768,0.264,1.359,0.797,1.776s1.631,0.804,3.297,1.147c2.383,0.505,4.195,1.214,5.424,2.143
							c1.235,0.921,1.85,2.127,1.85,3.611c0,1.725-0.694,3.135-2.091,4.225c-1.396,1.09-3.216,1.637-5.476,1.637
							c-2.478,0-4.43-0.628-5.854-1.885c-1.426-1.258-2.105-2.727-2.032-4.4l0.037-0.11h3.377c0.059,1.257,0.525,2.179,1.403,2.756
							c0.877,0.585,1.9,0.87,3.069,0.87c1.258,0,2.244-0.264,2.953-0.797C240.585,233.305,240.943,232.624,240.943,231.799z"/>
						<path fill="#E5D57D" d="M256.938,237.404c-2.793,0-4.971-0.891-6.535-2.675s-2.347-4.13-2.347-7.047v-0.79
							c0-2.791,0.804-5.102,2.419-6.93c1.609-1.827,3.582-2.74,5.906-2.74c2.604,0,4.547,0.811,5.849,2.426
							c1.302,1.616,1.952,3.766,1.952,6.455v1.871h-12.435l-0.052,0.088c0,1.952,0.432,3.539,1.295,4.752
							c0.862,1.213,2.178,1.827,3.954,1.827c1.198,0,2.251-0.168,3.151-0.512c0.906-0.343,1.681-0.812,2.324-1.411l1.381,2.303
							c-0.693,0.673-1.607,1.236-2.748,1.696C259.912,237.171,258.538,237.404,256.938,237.404z M256.381,220.008
							c-1.234,0-2.258,0.475-3.063,1.425c-0.811,0.95-1.301,2.171-1.483,3.655l0.036,0.088h8.771v-0.285
							c0-1.411-0.35-2.58-1.045-3.502C258.903,220.475,257.829,220.008,256.381,220.008z"/>
						<path fill="#E5D57D" d="M271.309,217.588l0.248,2.895c0.644-1.031,1.463-1.828,2.435-2.397
							c0.979-0.57,2.091-0.855,3.333-0.855c2.098,0,3.721,0.614,4.869,1.843c1.147,1.228,1.725,3.121,1.725,5.687v12.273h-3.537
							v-12.2c0-1.711-0.337-2.932-1.017-3.648c-0.681-0.716-1.711-1.081-3.1-1.081c-1.089,0-2.018,0.22-2.778,0.657
							c-0.76,0.439-1.359,1.053-1.805,1.843v14.43h-3.538v-19.444H271.309z"/>
						<path fill="#E5D57D" d="M288.26,227.668c0-3.129,0.666-5.65,2.004-7.565s3.209-2.873,5.613-2.873
							c1.141,0,2.149,0.212,3.026,0.629c0.878,0.417,1.63,1.03,2.259,1.835v-10.695h3.538v28.034h-2.712l-0.541-2.464
							c-0.636,0.936-1.418,1.645-2.354,2.12c-0.936,0.482-2.018,0.716-3.253,0.716c-2.368,0-4.232-0.861-5.57-2.58
							c-1.345-1.717-2.011-3.977-2.011-6.783V227.668z M291.799,228.041c0,1.967,0.401,3.538,1.205,4.715
							c0.805,1.177,2.047,1.77,3.736,1.77c1.053,0,1.937-0.242,2.66-0.717c0.717-0.482,1.309-1.148,1.762-2.01v-9.072
							c-0.453-0.805-1.045-1.439-1.77-1.915c-0.723-0.476-1.593-0.709-2.616-0.709c-1.703,0-2.953,0.702-3.765,2.104
							c-0.812,1.404-1.213,3.225-1.213,5.461V228.041L291.799,228.041z"/>
						<path fill="#E5D57D" d="M313.809,212.609h-3.538v-3.611h3.538V212.609z M313.809,237.025h-3.538V217.58h3.538V237.025z"/>
						<path fill="#E5D57D" d="M322.42,217.588l0.248,2.895c0.644-1.031,1.462-1.828,2.435-2.397c0.979-0.57,2.091-0.855,3.333-0.855
							c2.098,0,3.721,0.614,4.868,1.843c1.148,1.228,1.726,3.121,1.726,5.687v12.273h-3.538v-12.2c0-1.711-0.336-2.932-1.016-3.648
							c-0.681-0.716-1.711-1.081-3.1-1.081c-1.09,0-2.018,0.22-2.778,0.657c-0.76,0.439-1.359,1.053-1.806,1.843v14.43h-3.537
							v-19.444H322.42z"/>
						<path fill="#E5D57D" d="M339.539,227.668c0-3.129,0.666-5.65,2.003-7.565c1.338-1.915,3.202-2.873,5.6-2.873
							c1.235,0,2.317,0.249,3.253,0.745c0.936,0.498,1.718,1.214,2.354,2.149l0.431-2.536h2.822v19.547
							c0,2.492-0.725,4.408-2.172,5.738c-1.447,1.338-3.538,2.003-6.271,2.003c-0.936,0-1.944-0.132-3.026-0.388
							s-2.039-0.606-2.865-1.053l0.541-2.748c0.68,0.357,1.506,0.65,2.471,0.869c0.965,0.22,1.915,0.329,2.851,0.329
							c1.725,0,2.982-0.395,3.765-1.177s1.177-1.98,1.177-3.582v-2.207c-0.636,0.811-1.396,1.433-2.28,1.85
							c-0.885,0.416-1.908,0.628-3.07,0.628c-2.369,0-4.226-0.862-5.563-2.58c-1.337-1.718-2.003-3.977-2.003-6.784v-0.365H339.539z
							 M343.085,228.041c0,1.951,0.402,3.523,1.206,4.707c0.804,1.185,2.039,1.777,3.721,1.777c1.067,0,1.959-0.242,2.676-0.731
							c0.716-0.489,1.308-1.17,1.776-2.054v-8.947c-0.454-0.826-1.046-1.484-1.776-1.967c-0.731-0.482-1.608-0.73-2.64-0.73
							c-1.688,0-2.938,0.701-3.75,2.104c-0.811,1.403-1.213,3.224-1.213,5.46V228.041z"/>
					</g>
				</g>
			</g>
		</g>
	</g>
</g>
</svg>
