<?xml version="1.0" encoding="utf-8"?>
<!-- Generator: Adobe Illustrator 16.0.0, SVG Export Plug-In . SVG Version: 6.00 Build 0)  -->
<!DOCTYPE svg PUBLIC "-//W3C//DTD SVG 1.1//EN" "http://www.w3.org/Graphics/SVG/1.1/DTD/svg11.dtd">
<svg version="1.1" id="Layer_1" xmlns="http://www.w3.org/2000/svg" xmlns:xlink="http://www.w3.org/1999/xlink" x="0px" y="0px"
	 width="252px" height="314px" viewBox="76.5 50.5 252 314" enable-background="new 76.5 50.5 252 314" xml:space="preserve">
<g>
	<g>
		<g>
			<g>
				<g>
					<g>
						<g>
							
								<linearGradient id="SVGID_1_" gradientUnits="userSpaceOnUse" x1="15297.791" y1="-1219.1836" x2="15301.7031" y2="-1222.2124" gradientTransform="matrix(105.6888 0 0 112.1217 -1616728 137090.8906)">
								<stop  offset="0" style="stop-color:#E5D57D"/>
								<stop  offset="0.5" style="stop-color:#C3A656"/>
								<stop  offset="1" style="stop-color:#E5D57D"/>
							</linearGradient>
							<path fill="url(#SVGID_1_)" d="M287.307,186.33c-7.98-3.098-16.145-5.825-24.495-8.047l-28.249,23.25l9.344,22.239
								l-2.441,4.428c27.154,5.992,52.003,18.131,73.014,34.865V198.99c-5.286-2.896-10.69-5.589-16.213-8.064
								C293.553,195.438,286.953,191.397,287.307,186.33z"/>
							
								<linearGradient id="SVGID_2_" gradientUnits="userSpaceOnUse" x1="15309.1953" y1="-1215.707" x2="15310.624" y2="-1216.8127" gradientTransform="matrix(296.4033 0 0 248.6781 -4537675.5 302644.0625)">
								<stop  offset="0" style="stop-color:#E5D57D"/>
								<stop  offset="0.5" style="stop-color:#C3A656"/>
								<stop  offset="1" style="stop-color:#E5D57D"/>
							</linearGradient>
							<path fill="url(#SVGID_2_)" d="M241.902,287.777c3.703-5.135,12.273-2.777,11.565,4.462
								c6.515,2.878,12.744,6.296,18.62,10.185l21.026-12.138l21.347-13.435v-10.219c-21.498-17.088-46.969-29.359-74.798-35.235
								l-8.788,15.892l-22.34-13.955v-7.476l21.516-17.845l-1.179-32.391l29.444-15.96l11.582,12.778l-3.854,3.165
								c7.559,2.138,14.966,4.664,22.205,7.525c4.142-6.296,13.183-2.155,11.6,4.95c4.966,2.272,9.832,4.713,14.612,7.323v-58.266
								c-32.693-13.923-68.484-21.97-106.077-22.744c-1.498,5.185-9.528,6.902-12.155,0c-37.508,0.774-73.232,8.788-105.858,22.66
								v58.25c15.134-8.266,31.279-14.899,48.232-19.68l-3.872-3.182l11.583-12.778l29.445,15.96l-1.179,32.391l21.515,17.828v7.475
								l-22.34,13.957l-8.788-15.876c-12.559,2.644-24.646,6.599-36.094,11.7c1.566,6.297-6.481,10.893-11.162,5.471
								c-9.663,5.135-18.805,11.129-27.34,17.879v10.404l23.771,14.967l18.384,10.605
								C181.263,270.438,229.444,283.67,241.902,287.777z M183.653,203.283l3.199-43.031l-36.65-4.848
								c13.485-17.728,26.953-27.206,26.953-27.206l25.152,20.943l25.135-20.909c0,0,13.484,9.461,26.953,27.188l-36.65,4.849
								l3.215,43.047l-18.67,2.088L183.653,203.283z M202.289,245.27l26.179,8.249c-3.216,7.71-7.356,13.923-7.356,13.923
								l-37.626-0.018c0,0-4.158-6.212-7.357-13.922L202.289,245.27z"/>
							
								<linearGradient id="SVGID_3_" gradientUnits="userSpaceOnUse" x1="15305.1953" y1="-1225.0684" x2="15307.5547" y2="-1226.8948" gradientTransform="matrix(179.2811 0 0 71.481 -2743912.75 87936.5234)">
								<stop  offset="0" style="stop-color:#E5D57D"/>
								<stop  offset="0.5" style="stop-color:#C3A656"/>
								<stop  offset="1" style="stop-color:#E5D57D"/>
							</linearGradient>
							<path fill="url(#SVGID_3_)" d="M252.223,295.236c-2.862,4.443-11.65,3.047-11.414-4.243
								c-11.971-3.821-57.593-16.583-106.229,13.721l47.525,29.933l7.71,4.444c12.474-2.037,20.892-0.69,24.949,0l10.102-5.825
								l45.252-28.502C264.444,301.145,258.468,297.93,252.223,295.236z"/>
							
								<linearGradient id="SVGID_4_" gradientUnits="userSpaceOnUse" x1="15298.9219" y1="-1219.9619" x2="15302.8496" y2="-1223.0023" gradientTransform="matrix(105.4091 0 0 111.8844 -1612635.25 136803.0625)">
								<stop  offset="0" style="stop-color:#E5D57D"/>
								<stop  offset="0.5" style="stop-color:#C3A656"/>
								<stop  offset="1" style="stop-color:#E5D57D"/>
							</linearGradient>
							<path fill="url(#SVGID_4_)" d="M127.29,240.219c11.38-5.202,23.384-9.275,35.875-12.037l-2.441-4.428l9.343-22.238
								l-28.249-23.233c-18.098,4.832-35.354,11.801-51.448,20.606v63.973c8.131-6.447,16.835-12.188,26.027-17.171
								C115.522,238.838,123.451,235.943,127.29,240.219z"/>
							<g opacity="0.29">
								
									<linearGradient id="SVGID_5_" gradientUnits="userSpaceOnUse" x1="15298.9219" y1="-1219.9619" x2="15302.8496" y2="-1223.0023" gradientTransform="matrix(105.4091 0 0 111.8844 -1612635.25 136803.0625)">
									<stop  offset="0" style="stop-color:#E5D57D"/>
									<stop  offset="0.5" style="stop-color:#C3A656"/>
									<stop  offset="1" style="stop-color:#E5D57D"/>
								</linearGradient>
								<path fill="url(#SVGID_5_)" d="M127.29,240.219c11.38-5.202,23.384-9.275,35.875-12.037l-2.441-4.428l9.343-22.238
									l-28.249-23.233c-18.098,4.832-35.354,11.801-51.448,20.606v63.973c8.131-6.447,16.835-12.188,26.027-17.171
									C115.522,238.838,123.451,235.943,127.29,240.219z"/>
							</g>
							
								<linearGradient id="SVGID_6_" gradientUnits="userSpaceOnUse" x1="15234.4961" y1="-1331.8975" x2="15253.4229" y2="-1346.548" gradientTransform="matrix(22.3498 0 0 7.7127 -340459.5 10662.7666)">
								<stop  offset="0" style="stop-color:#E5D57D"/>
								<stop  offset="0.5" style="stop-color:#C3A656"/>
								<stop  offset="1" style="stop-color:#E5D57D"/>
							</linearGradient>
							<path fill="url(#SVGID_6_)" d="M193.939,342.088l8.468,5.336l8.435-5.319c-2.795-0.337-5.64-0.522-8.535-0.522
								C199.478,341.6,196.684,341.768,193.939,342.088z"/>
							
								<linearGradient id="SVGID_7_" gradientUnits="userSpaceOnUse" x1="15307.7988" y1="-1221.5391" x2="15309.3594" y2="-1222.7476" gradientTransform="matrix(270.9431 0 0 85.4749 -4147743.75 104619.6875)">
								<stop  offset="0" style="stop-color:#E5D57D"/>
								<stop  offset="0.5" style="stop-color:#C3A656"/>
								<stop  offset="1" style="stop-color:#E5D57D"/>
							</linearGradient>
							<path fill="url(#SVGID_7_)" d="M264.579,104.276l-62.172-39.158l-59.646,37.576l-42.609,26.818
								c29.933-11.431,62.256-17.997,96.027-18.704c2.037-6.414,10.472-6.111,12.256,0c33.973,0.707,66.481,7.357,96.565,18.922
								L264.579,104.276z"/>
						</g>
						<g>
							
								<linearGradient id="SVGID_8_" gradientUnits="userSpaceOnUse" x1="15309.7422" y1="-1214.3711" x2="15310.9658" y2="-1215.3185" gradientTransform="matrix(320.9313 0 0 403.5499 -4913328 490417.5)">
								<stop  offset="0" style="stop-color:#E5D57D"/>
								<stop  offset="0.5" style="stop-color:#C3A656"/>
								<stop  offset="1" style="stop-color:#E5D57D"/>
							</linearGradient>
							<path fill="url(#SVGID_8_)" d="M202.407,358.956l-121.33-76.363V130.202l121.33-76.364l121.33,76.364v152.391
								L202.407,358.956z M85.488,280.151l116.919,73.586l116.902-73.586V132.626L202.407,59.041L85.488,132.626V280.151z"/>
						</g>
					</g>
				</g>
			</g>
		</g>
	</g>
</g>
</svg>
