<?xml version="1.0" encoding="utf-8"?>
<!-- Generator: Adobe Illustrator 16.0.0, SVG Export Plug-In . SVG Version: 6.00 Build 0)  -->
<!DOCTYPE svg PUBLIC "-//W3C//DTD SVG 1.1//EN" "http://www.w3.org/Graphics/SVG/1.1/DTD/svg11.dtd">
<svg version="1.1" id="Layer_1" xmlns="http://www.w3.org/2000/svg" xmlns:xlink="http://www.w3.org/1999/xlink" x="0px" y="0px"
	 width="178.5px" height="217.5px" viewBox="0 0 178.5 217.5" enable-background="new 0 0 178.5 217.5" xml:space="preserve">
<g>
	<g>
		
			<linearGradient id="SVGID_1_" gradientUnits="userSpaceOnUse" x1="-1053.7261" y1="683.1836" x2="-1053.693" y2="683.158" gradientTransform="matrix(8313.333 0 0 8819.333 8759980 -6024998.5)">
			<stop  offset="0" style="stop-color:#E5D57D"/>
			<stop  offset="0.5" style="stop-color:#C3A656"/>
			<stop  offset="1" style="stop-color:#E5D57D"/>
		</linearGradient>
		<path fill="url(#SVGID_1_)" d="M145.42,95.333c-5.332-2-10.666-4-16-5.333l-18.666,15.333l6,14.667l-1.334,2.667
			c18,4,34.668,12,48.668,23.333v-42.667c-3.334-2-7.334-4-10.668-5.333C149.42,101.333,144.754,98.667,145.42,95.333z"/>
		
			<linearGradient id="SVGID_2_" gradientUnits="userSpaceOnUse" x1="-1051.3979" y1="684.4277" x2="-1051.3859" y2="684.4183" gradientTransform="matrix(23314.666 0 0 19560.666 24512982 -13387646)">
			<stop  offset="0" style="stop-color:#E5D57D"/>
			<stop  offset="0.5" style="stop-color:#C3A656"/>
			<stop  offset="1" style="stop-color:#E5D57D"/>
		</linearGradient>
		<path fill="url(#SVGID_2_)" d="M114.754,162.667c2.666-3.334,8-2,8,2.666c4,2,8.666,4,12.666,6.666l14-8l14-8.666v-6.667
			c-14-11.333-31.332-19.333-50-23.333l-6,10.667l-14.666-9.333V122l14-12l-0.666-21.333L125.42,78l8,8.667l-2.666,2
			C136.088,90,140.754,92,145.42,94c2.668-4,8.668-1.333,8,3.333c3.334,1.333,6.668,3.333,10,4.667V62.667
			c-22-9.333-45.332-14.667-70.666-15.333c-0.666,3.333-6.667,4.667-8,0c-24.667,0.667-48.667,6-70.667,15.333v38.667
			c10-5.333,20.667-10,32-13.333l-2.667-2l8-8.667L70.754,88l-0.667,21.333l14,12V126L69.42,136l-6-10.667
			c-8.667,2-16.667,4.667-24,8c1.333,4-4,7.333-7.333,3.333c-6.667,3.333-12.667,7.333-18,12v6.667l16,10l12,7.334
			C74.754,151.333,106.754,160,114.754,162.667z M76.087,106.667l2-28.667L53.42,74.667c8.667-12,18-18,18-18l16.667,14l16.667-14
			c0,0,8.666,6,18,18L98.088,78l2,28.667L88.754,108L76.087,106.667z M88.754,134.667L106.088,140c-2,5.333-4.668,9.333-4.668,9.333
			H76.087c0,0-2.667-4-4.667-9.333L88.754,134.667z"/>
		
			<linearGradient id="SVGID_3_" gradientUnits="userSpaceOnUse" x1="-1051.915" y1="680.2686" x2="-1051.8951" y2="680.2532" gradientTransform="matrix(14102 0 0 5622.5933 14834086 -3824656)">
			<stop  offset="0" style="stop-color:#E5D57D"/>
			<stop  offset="0.5" style="stop-color:#C3A656"/>
			<stop  offset="1" style="stop-color:#E5D57D"/>
		</linearGradient>
		<path fill="url(#SVGID_3_)" d="M122.088,168c-2,2.668-8,2-7.334-2.666c-8-2.666-38-11.334-70.667,9.334l31.333,20l5.333,2.666
			c8-1.334,14-0.666,16.666,0l6.668-4l30-18.666C130.088,172,126.088,169.333,122.088,168z"/>
		
			<linearGradient id="SVGID_4_" gradientUnits="userSpaceOnUse" x1="-1051.9282" y1="683.1748" x2="-1051.895" y2="683.1491" gradientTransform="matrix(8291.333 0 0 8800.666 8721850 -6012210.5)">
			<stop  offset="0" style="stop-color:#E5D57D"/>
			<stop  offset="0.5" style="stop-color:#C3A656"/>
			<stop  offset="1" style="stop-color:#E5D57D"/>
		</linearGradient>
		<path fill="url(#SVGID_4_)" d="M38.754,131.333c7.333-3.333,15.333-6,24-8l-1.333-2.667l6-14.667L48.754,90
			c-12,3.333-23.333,8-34,14v42.667c5.333-4,11.333-8,17.333-11.333C30.754,130,36.087,128.667,38.754,131.333z"/>
		<g opacity="0.29">
			
				<linearGradient id="SVGID_5_" gradientUnits="userSpaceOnUse" x1="-1051.9282" y1="683.1748" x2="-1051.895" y2="683.1491" gradientTransform="matrix(8291.333 0 0 8800.666 8721850 -6012210.5)">
				<stop  offset="0" style="stop-color:#E5D57D"/>
				<stop  offset="0.5" style="stop-color:#C3A656"/>
				<stop  offset="1" style="stop-color:#E5D57D"/>
			</linearGradient>
			<path fill="url(#SVGID_5_)" d="M38.754,131.333c7.333-3.333,15.333-6,24-8l-1.333-2.667l6-14.667L48.754,90
				c-12,3.333-23.333,8-34,14v42.667c5.333-4,11.333-8,17.333-11.333C30.754,130,36.087,128.667,38.754,131.333z"/>
		</g>
		
			<linearGradient id="SVGID_6_" gradientUnits="userSpaceOnUse" x1="-1061.1084" y1="632.8613" x2="-1060.9482" y2="632.7374" gradientTransform="matrix(1758 0 0 606.6666 1865399.5 -383705.5)">
			<stop  offset="0" style="stop-color:#E5D57D"/>
			<stop  offset="0.5" style="stop-color:#C3A656"/>
			<stop  offset="1" style="stop-color:#E5D57D"/>
		</linearGradient>
		<path fill="url(#SVGID_6_)" d="M83.42,199.333l5.333,3.334l5.334-3.334c-2,0-4-0.666-6-0.666
			C86.754,198.667,84.754,198.667,83.42,199.333z"/>
		
			<linearGradient id="SVGID_7_" gradientUnits="userSpaceOnUse" x1="-1051.4805" y1="684.4033" x2="-1051.4673" y2="684.3931" gradientTransform="matrix(21312 0 0 6723.333 22408992 -4601362.5)">
			<stop  offset="0" style="stop-color:#E5D57D"/>
			<stop  offset="0.5" style="stop-color:#C3A656"/>
			<stop  offset="1" style="stop-color:#E5D57D"/>
		</linearGradient>
		<path fill="url(#SVGID_7_)" d="M130.088,40.667l-41.334-26L48.754,40L20.087,58c20-7.333,41.333-12,64-12.667c1.333-4,6.667-4,8,0
			c22.666,0.667,44,4.667,64,12.667L130.088,40.667z"/>
	</g>
	<g>
		
			<linearGradient id="SVGID_8_" gradientUnits="userSpaceOnUse" x1="-1051.3374" y1="684.7813" x2="-1051.327" y2="684.7733" gradientTransform="matrix(25244 0 0 31742.666 26539954 -21736570)">
			<stop  offset="0" style="stop-color:#E5D57D"/>
			<stop  offset="0.5" style="stop-color:#C3A656"/>
			<stop  offset="1" style="stop-color:#E5D57D"/>
		</linearGradient>
		<path fill="url(#SVGID_8_)" d="M88.754,210L8.087,159.333V58L88.754,7.333L169.42,58v101.333L88.754,210z M10.754,158l78,48.668
			l78-48.668V59.333l-78-48.667l-78,48.667V158z"/>
	</g>
</g>
</svg>
